<svg width="26" height="26" viewBox="0 0 26 26" fill="none" xmlns="http://www.w3.org/2000/svg">
<path d="M22.75 11.7355V21.125C22.75 21.556 22.5788 21.9693 22.274 22.274C21.9693 22.5788 21.556 22.75 21.125 22.75H17.0625C16.6315 22.75 16.2182 22.5788 15.9135 22.274C15.6087 21.9693 15.4375 21.556 15.4375 21.125V17.0625C15.4375 16.847 15.3519 16.6403 15.1995 16.488C15.0472 16.3356 14.8405 16.25 14.625 16.25H11.375C11.1595 16.25 10.9528 16.3356 10.8005 16.488C10.6481 16.6403 10.5625 16.847 10.5625 17.0625V21.125C10.5625 21.556 10.3913 21.9693 10.0865 22.274C9.7818 22.5788 9.36848 22.75 8.9375 22.75H4.875C4.44402 22.75 4.0307 22.5788 3.72595 22.274C3.4212 21.9693 3.25 21.556 3.25 21.125V11.7355C3.24997 11.5106 3.29662 11.2882 3.387 11.0822C3.47738 10.8763 3.60953 10.6914 3.77508 10.5391L11.9001 2.87318L11.9112 2.86201C12.2104 2.58996 12.6002 2.43921 13.0046 2.43921C13.4089 2.43921 13.7987 2.58996 14.0979 2.86201C14.1014 2.86599 14.1051 2.86972 14.1091 2.87318L22.2341 10.5391C22.398 10.6922 22.5284 10.8775 22.6172 11.0834C22.706 11.2893 22.7512 11.5113 22.75 11.7355Z" fill="white"/>
</svg>
