<svg width="26" height="26" viewBox="0 0 26 26" fill="none" xmlns="http://www.w3.org/2000/svg">
<path d="M24.8623 15.2751C24.777 15.3391 24.6798 15.3857 24.5765 15.4122C24.4731 15.4387 24.3655 15.4445 24.2599 15.4294C24.1543 15.4143 24.0527 15.3786 23.9609 15.3242C23.869 15.2699 23.7888 15.198 23.7248 15.1126C23.2351 14.4543 22.5977 13.9202 21.8638 13.5533C21.13 13.1864 20.3203 12.9969 19.4998 13.0001C19.34 13.0001 19.1838 12.953 19.0507 12.8646C18.9176 12.7763 18.8134 12.6507 18.7513 12.5035C18.7091 12.4035 18.6874 12.2961 18.6874 12.1876C18.6874 12.0791 18.7091 11.9717 18.7513 11.8717C18.8134 11.7245 18.9176 11.5989 19.0507 11.5106C19.1838 11.4222 19.34 11.3751 19.4998 11.3751C19.9557 11.3751 20.4024 11.2472 20.7893 11.006C21.1761 10.7648 21.4876 10.4199 21.6883 10.0105C21.8889 9.6012 21.9708 9.14379 21.9245 8.69026C21.8783 8.23672 21.7057 7.80525 21.4266 7.44486C21.1474 7.08446 20.7727 6.80958 20.3451 6.65144C19.9175 6.49331 19.4542 6.45825 19.0077 6.55025C18.5612 6.64226 18.1494 6.85764 17.8192 7.17193C17.489 7.48621 17.2535 7.88682 17.1395 8.32822C17.1128 8.43159 17.0661 8.52869 17.0019 8.61398C16.9377 8.69926 16.8573 8.77107 16.7653 8.8253C16.6734 8.87953 16.5717 8.91511 16.4659 8.93003C16.3602 8.94494 16.2526 8.93888 16.1493 8.91221C16.0459 8.88553 15.9488 8.83876 15.8635 8.77456C15.7782 8.71036 15.7064 8.62999 15.6522 8.53804C15.598 8.44609 15.5624 8.34435 15.5475 8.23865C15.5326 8.13295 15.5386 8.02534 15.5653 7.92197C15.7235 7.30987 16.0223 6.74314 16.4381 6.26686C16.8539 5.79059 17.375 5.41792 17.9602 5.17852C18.5453 4.93911 19.1782 4.83958 19.8086 4.88783C20.439 4.93608 21.0494 5.13078 21.5913 5.45646C22.1332 5.78213 22.5915 6.22977 22.93 6.76377C23.2684 7.29778 23.4775 7.9034 23.5407 8.53244C23.6039 9.16149 23.5194 9.79661 23.2939 10.3873C23.0685 10.9779 22.7083 11.5078 22.242 11.9347C23.3468 12.4131 24.3072 13.1722 25.0279 14.1366C25.0919 14.2222 25.1384 14.3195 25.1647 14.4231C25.191 14.5267 25.1967 14.6344 25.1813 14.7402C25.1659 14.8459 25.1298 14.9476 25.0751 15.0394C25.0204 15.1312 24.9481 15.2113 24.8623 15.2751ZM19.3901 21.5313C19.4489 21.6238 19.4884 21.7272 19.5062 21.8354C19.524 21.9435 19.5197 22.0541 19.4936 22.1605C19.4676 22.267 19.4202 22.367 19.3545 22.4547C19.2887 22.5424 19.2059 22.6158 19.1111 22.6707C19.0162 22.7255 18.9112 22.7606 18.8024 22.7738C18.6936 22.787 18.5833 22.7781 18.4781 22.7476C18.3728 22.717 18.2749 22.6655 18.19 22.5961C18.1052 22.5268 18.0353 22.4409 17.9845 22.3438C17.4727 21.4772 16.7437 20.7589 15.8696 20.26C14.9955 19.761 14.0063 19.4986 12.9998 19.4986C11.9933 19.4986 11.0042 19.761 10.13 20.26C9.25591 20.7589 8.52696 21.4772 8.01513 22.3438C7.96434 22.4409 7.89443 22.5268 7.80961 22.5961C7.72479 22.6655 7.62681 22.717 7.52157 22.7476C7.41633 22.7781 7.306 22.787 7.19722 22.7738C7.08843 22.7606 6.98345 22.7255 6.88858 22.6707C6.79371 22.6158 6.71091 22.5424 6.64516 22.4547C6.57942 22.367 6.53209 22.267 6.50602 22.1605C6.47995 22.0541 6.47568 21.9435 6.49346 21.8354C6.51125 21.7272 6.55072 21.6238 6.60951 21.5313C7.39722 20.1779 8.5983 19.1128 10.0362 18.4926C9.22711 17.8731 8.63246 17.0156 8.33587 16.0407C8.03928 15.0658 8.05566 14.0224 8.3827 13.0573C8.70975 12.0921 9.33102 11.2538 10.1592 10.66C10.9874 10.0662 11.9808 9.74685 12.9998 9.74685C14.0189 9.74685 15.0123 10.0662 15.8405 10.66C16.6686 11.2538 17.2899 12.0921 17.6169 13.0573C17.944 14.0224 17.9604 15.0658 17.6638 16.0407C17.3672 17.0156 16.7725 17.8731 15.9634 18.4926C17.4013 19.1128 18.6024 20.1779 19.3901 21.5313ZM12.9998 17.8751C13.6426 17.8751 14.271 17.6845 14.8054 17.3274C15.3399 16.9703 15.7564 16.4627 16.0024 15.8688C16.2484 15.275 16.3128 14.6215 16.1874 13.9911C16.062 13.3606 15.7524 12.7815 15.2979 12.327C14.8434 11.8725 14.2643 11.5629 13.6339 11.4375C13.0034 11.3121 12.35 11.3765 11.7561 11.6225C11.1622 11.8685 10.6547 12.285 10.2975 12.8195C9.94043 13.354 9.74982 13.9823 9.74982 14.6251C9.74982 15.4871 10.0922 16.3137 10.7017 16.9232C11.3112 17.5327 12.1379 17.8751 12.9998 17.8751ZM7.31232 12.1876C7.31232 11.9721 7.22672 11.7654 7.07434 11.6131C6.92197 11.4607 6.71531 11.3751 6.49982 11.3751C6.04393 11.3751 5.5972 11.2472 5.21035 11.006C4.8235 10.7648 4.51206 10.4199 4.31138 10.0105C4.11071 9.6012 4.02885 9.14379 4.07512 8.69026C4.12138 8.23672 4.2939 7.80525 4.57309 7.44486C4.85227 7.08446 5.22694 6.80958 5.65451 6.65144C6.08209 6.49331 6.54545 6.45825 6.99196 6.55025C7.43846 6.64226 7.85022 6.85764 8.18045 7.17193C8.51069 7.48621 8.74616 7.88682 8.86013 8.32822C8.91401 8.53698 9.0486 8.71578 9.2343 8.8253C9.42001 8.93482 9.64161 8.96608 9.85037 8.91221C10.0591 8.85834 10.2379 8.72374 10.3474 8.53804C10.457 8.35233 10.4882 8.13073 10.4344 7.92197C10.2762 7.30987 9.9773 6.74314 9.56154 6.26686C9.14577 5.79059 8.62459 5.41792 8.03946 5.17852C7.45433 4.93911 6.8214 4.83958 6.19103 4.88783C5.56066 4.93608 4.95025 5.13078 4.40837 5.45646C3.86649 5.78213 3.4081 6.22977 3.06967 6.76377C2.73124 7.29778 2.52211 7.9034 2.45892 8.53244C2.39573 9.16149 2.48023 9.79661 2.70569 10.3873C2.93115 10.9779 3.29135 11.5078 3.75763 11.9347C2.65394 12.4135 1.69461 13.1726 0.97482 14.1366C0.845392 14.309 0.789747 14.5257 0.820127 14.7391C0.850506 14.9526 0.964421 15.1452 1.13681 15.2746C1.3092 15.404 1.52595 15.4597 1.73937 15.4293C1.95278 15.3989 2.14539 15.285 2.27482 15.1126C2.76454 14.4543 3.40197 13.9202 4.13581 13.5533C4.86964 13.1864 5.67937 12.9969 6.49982 13.0001C6.71531 13.0001 6.92197 12.9145 7.07434 12.7621C7.22672 12.6098 7.31232 12.4031 7.31232 12.1876Z" fill="white"/>
</svg>
