<svg width="26" height="26" viewBox="0 0 26 26" fill="none" xmlns="http://www.w3.org/2000/svg">
<path d="M2.4375 9.75V17.0625C2.4375 17.278 2.5231 17.4847 2.67548 17.637C2.82785 17.7894 3.03451 17.875 3.25 17.875H11.375C11.5905 17.875 11.7972 17.9606 11.9495 18.113C12.1019 18.2653 12.1875 18.472 12.1875 18.6875C12.1875 18.903 12.1019 19.1097 11.9495 19.262C11.7972 19.4144 11.5905 19.5 11.375 19.5H9.75V21.125H11.375C11.5905 21.125 11.7972 21.2106 11.9495 21.363C12.1019 21.5153 12.1875 21.722 12.1875 21.9375C12.1875 22.153 12.1019 22.3597 11.9495 22.512C11.7972 22.6644 11.5905 22.75 11.375 22.75H6.5C6.28451 22.75 6.07785 22.6644 5.92548 22.512C5.7731 22.3597 5.6875 22.153 5.6875 21.9375C5.6875 21.722 5.7731 21.5153 5.92548 21.363C6.07785 21.2106 6.28451 21.125 6.5 21.125H8.125V19.5H3.25C2.60353 19.5 1.98355 19.2432 1.52643 18.7861C1.06931 18.329 0.8125 17.709 0.8125 17.0625V9.75C0.8125 9.10353 1.06931 8.48355 1.52643 8.02643C1.98355 7.56931 2.60353 7.3125 3.25 7.3125H11.375C11.5905 7.3125 11.7972 7.3981 11.9495 7.55048C12.1019 7.70285 12.1875 7.90951 12.1875 8.125C12.1875 8.34049 12.1019 8.54715 11.9495 8.69952C11.7972 8.8519 11.5905 8.9375 11.375 8.9375H3.25C3.03451 8.9375 2.82785 9.0231 2.67548 9.17548C2.5231 9.32785 2.4375 9.53451 2.4375 9.75ZM21.125 6.5H17.875C17.6595 6.5 17.4528 6.5856 17.3005 6.73798C17.1481 6.89035 17.0625 7.09701 17.0625 7.3125C17.0625 7.52799 17.1481 7.73465 17.3005 7.88702C17.4528 8.0394 17.6595 8.125 17.875 8.125H21.125C21.3405 8.125 21.5472 8.0394 21.6995 7.88702C21.8519 7.73465 21.9375 7.52799 21.9375 7.3125C21.9375 7.09701 21.8519 6.89035 21.6995 6.73798C21.5472 6.5856 21.3405 6.5 21.125 6.5ZM21.125 9.75H17.875C17.6595 9.75 17.4528 9.8356 17.3005 9.98798C17.1481 10.1403 17.0625 10.347 17.0625 10.5625C17.0625 10.778 17.1481 10.9847 17.3005 11.137C17.4528 11.2894 17.6595 11.375 17.875 11.375H21.125C21.3405 11.375 21.5472 11.2894 21.6995 11.137C21.8519 10.9847 21.9375 10.778 21.9375 10.5625C21.9375 10.347 21.8519 10.1403 21.6995 9.98798C21.5472 9.8356 21.3405 9.75 21.125 9.75ZM25.1875 4.875V21.125C25.1875 21.556 25.0163 21.9693 24.7115 22.274C24.4068 22.5788 23.9935 22.75 23.5625 22.75H15.4375C15.0065 22.75 14.5932 22.5788 14.2885 22.274C13.9837 21.9693 13.8125 21.556 13.8125 21.125V4.875C13.8125 4.44402 13.9837 4.0307 14.2885 3.72595C14.5932 3.4212 15.0065 3.25 15.4375 3.25H23.5625C23.9935 3.25 24.4068 3.4212 24.7115 3.72595C25.0163 4.0307 25.1875 4.44402 25.1875 4.875ZM23.5625 21.125V4.875H15.4375V21.125H23.5625ZM19.5 17.0625C19.259 17.0625 19.0233 17.134 18.8229 17.2679C18.6225 17.4018 18.4663 17.5922 18.374 17.8149C18.2818 18.0376 18.2576 18.2826 18.3047 18.519C18.3517 18.7554 18.4678 18.9726 18.6382 19.143C18.8087 19.3135 19.0258 19.4296 19.2622 19.4766C19.4986 19.5236 19.7437 19.4995 19.9664 19.4072C20.1891 19.315 20.3794 19.1588 20.5134 18.9584C20.6473 18.7579 20.7188 18.5223 20.7188 18.2812C20.7188 17.958 20.5903 17.648 20.3618 17.4195C20.1332 17.1909 19.8232 17.0625 19.5 17.0625Z" fill="white"/>
</svg>
